<svg version="1.1" id="Layer_1" xmlns="http://www.w3.org/2000/svg" xmlns:xlink="http://www.w3.org/1999/xlink" x="0px" y="0px"
	 width="100%" viewBox="0 0 1098 345" enable-background="new 0 0 1098 345" xml:space="preserve">

<path fill="#FE851D" opacity="1.000000" stroke="none" 
	d="
M856.468445,153.662811 
	C867.677673,119.331726 897.560364,98.216682 932.322083,99.777603 
	C966.255859,101.301346 994.428406,124.977989 1002.404419,158.675781 
	C1013.611206,206.023056 975.400574,252.075974 926.366821,250.319214 
	C885.537415,248.856415 853.371643,215.951859 853.445251,175.232468 
	C853.458069,168.168137 855.324341,161.107178 856.468445,153.662811 
z"/>
<path fill="#F5F5F5" opacity="1.000000" stroke="none" 
	d="
M269.630066,212.625458 
	C260.098022,221.888855 247.573242,218.799454 245.250656,206.154922 
	C243.811386,198.319290 244.831757,189.978317 245.194885,181.884232 
	C245.432785,176.581497 246.459412,171.313263 247.151642,166.032059 
	C247.704254,161.815903 255.357300,156.642242 259.085327,158.508621 
	C260.462860,159.198273 261.472015,162.344009 261.254303,164.206512 
	C260.230865,172.961563 258.377350,181.626053 257.517120,190.391266 
	C257.004028,195.619568 257.444489,201.019272 258.150818,206.248093 
	C258.405151,208.130875 260.492188,210.878525 262.102905,211.158249 
	C263.772491,211.448181 266.751312,209.676102 267.612671,208.008102 
	C269.430450,204.488022 271.366302,200.419388 271.272064,196.625031 
	C270.818542,178.361404 283.934235,160.929642 301.482178,157.706802 
	C304.348969,157.180298 307.395538,157.632782 310.990234,157.632782 
	C312.621704,144.740616 314.338226,131.758881 315.872681,118.755646 
	C316.462952,113.753418 324.730133,107.470039 329.166412,109.524902 
	C330.611572,110.194298 331.696625,113.702057 331.412476,115.692726 
	C330.073364,125.074669 328.013824,134.351532 326.563232,143.720383 
	C324.297546,158.353394 321.972565,172.993149 320.376495,187.706390 
	C319.705170,193.895279 320.572479,200.308746 321.303558,206.554214 
	C321.502960,208.257721 323.496490,210.534668 325.130890,211.036469 
	C326.416290,211.431122 329.249756,209.913681 329.940430,208.522964 
	C331.937836,204.501038 334.460236,200.136261 334.534485,195.867065 
	C334.860260,177.138306 347.493469,160.066681 364.877716,157.832840 
	C370.958160,157.051483 377.490692,159.402756 383.758881,160.621292 
	C387.194061,161.289124 385.937134,164.151184 385.692169,166.327621 
	C384.687286,175.255020 383.329010,184.155533 382.710571,193.108047 
	C382.406464,197.510147 382.900421,202.139282 383.986206,206.424210 
	C385.525604,212.499435 390.171051,213.472931 394.109589,208.508667 
	C396.849548,205.055069 398.618988,200.816391 400.703918,196.866104 
	C401.459991,195.433609 401.873383,193.820251 402.443146,192.289413 
	C402.960815,192.176285 403.478485,192.063156 403.996185,191.950027 
	C404.412476,193.287155 405.536926,194.917526 405.125214,195.911804 
	C403.099945,200.802933 401.090088,205.793396 398.271942,210.239990 
	C394.659088,215.940643 389.268494,219.296417 382.176636,217.863403 
	C375.138153,216.441208 371.710938,211.291107 369.990265,204.744614 
	C369.658783,203.483353 369.400452,202.202866 368.877899,199.927780 
	C367.155151,203.309860 365.969482,205.929565 364.534882,208.404968 
	C357.011841,221.386230 345.228790,221.530518 337.358521,208.784073 
	C337.112305,208.385300 336.784821,208.036713 336.478851,207.643692 
	C326.914093,224.155548 309.585419,221.265228 306.338654,198.945602 
	C305.387451,200.900269 304.866882,202.101089 304.235809,203.240738 
	C302.708466,205.999008 301.401855,208.933334 299.523010,211.433533 
	C292.459595,220.832993 281.721985,220.362305 275.183990,210.510468 
	C274.632721,209.679779 274.148956,208.804276 273.430817,207.612732 
	C272.168243,209.291168 271.016571,210.822144 269.630066,212.625458 
M297.095947,207.608292 
	C304.716003,195.824814 306.339355,182.209488 308.816040,168.872192 
	C308.972412,168.029968 308.203339,166.646301 307.443665,166.063736 
	C302.597351,162.347351 292.859100,163.774994 290.111603,169.058746 
	C283.952850,180.902893 282.830902,193.457840 286.967957,206.172150 
	C288.799011,211.799530 291.966278,212.200500 297.095947,207.608292 
M368.424805,184.837830 
	C369.527832,179.986176 370.744629,175.155716 371.655060,170.268188 
	C371.886902,169.023712 371.605804,167.087921 370.776062,166.340622 
	C366.248962,162.263290 355.089203,164.020081 352.657196,169.492691 
	C347.526978,181.037216 345.996246,193.115555 349.850739,205.365036 
	C350.530609,207.525650 352.917969,210.174484 354.915009,210.565826 
	C356.471008,210.870743 359.549377,208.412842 360.382263,206.499725 
	C363.343170,199.698502 365.632660,192.604980 368.424805,184.837830 
z"/>
<path fill="#F5F5F5" opacity="1.000000" stroke="none" 
	d="
M149.142761,212.824402 
	C143.895493,206.099609 142.882797,198.456467 143.317322,190.766022 
	C144.726257,165.830826 150.437515,141.791565 159.429306,118.522247 
	C160.805878,114.959900 170.214310,108.278160 173.317291,109.427170 
	C175.925262,110.392883 178.623520,112.993187 179.818634,115.552963 
	C183.822540,124.128822 184.052261,133.292419 181.895325,142.409897 
	C178.718567,155.838165 172.479446,167.226761 159.797714,174.134109 
	C158.683640,174.740906 157.348816,176.284668 157.352570,177.389023 
	C157.382507,186.171219 157.241669,195.005096 158.218033,203.703613 
	C158.535477,206.531708 161.663879,210.654526 164.141937,211.178101 
	C166.631943,211.704193 170.722672,209.158722 172.700455,206.783829 
	C179.386749,198.754990 181.623215,188.675003 183.616104,178.731339 
	C184.545837,174.092407 184.338058,169.196640 184.366272,164.415649 
	C184.386322,161.020142 188.655273,157.743698 194.043854,157.412933 
	C197.998199,157.170227 198.830536,159.983444 198.895309,162.939850 
	C198.963440,166.048660 198.420883,169.167496 198.223145,172.286911 
	C198.126373,173.813583 198.206390,175.351471 199.402405,177.249588 
	C200.043259,176.096695 200.680298,174.941635 201.325714,173.791290 
	C203.111359,170.608673 204.651215,167.252304 206.742966,164.285172 
	C210.474167,158.992493 215.623276,156.230835 222.246597,157.468292 
	C228.960297,158.722626 233.003922,163.359146 233.789963,169.682938 
	C234.531357,175.647614 234.611618,182.072021 233.198288,187.858337 
	C228.372055,207.617447 216.443481,216.653290 193.988632,218.448273 
	C192.002167,229.919601 189.987839,241.504471 187.993118,253.092728 
	C187.116852,258.183380 181.276352,263.020203 176.039093,262.969330 
	C172.641418,262.936310 172.928619,260.759338 173.370590,258.457825 
	C175.722549,246.210068 178.196960,233.983871 180.366333,221.703796 
	C181.659088,214.385941 182.469009,206.982788 182.561737,199.387360 
	C180.056122,203.166077 177.786118,207.130814 174.986267,210.677261 
	C171.343307,215.291595 166.517609,218.809875 160.454391,217.920868 
	C156.611191,217.357361 153.064209,214.773712 149.142761,212.824402 
M202.414062,183.024277 
	C200.307251,190.547714 198.085464,198.042542 196.198853,205.620804 
	C195.856262,206.996979 196.369202,209.469574 197.365753,210.150803 
	C203.361267,214.249298 212.012772,212.709656 215.343597,206.567200 
	C221.640533,194.954819 222.588043,182.422104 219.555344,169.724503 
	C218.255188,164.280853 213.738312,163.336670 210.433884,167.890869 
	C207.263916,172.259781 205.253082,177.469757 202.414062,183.024277 
M168.714020,123.340393 
	C163.796051,138.125015 160.663223,153.286942 158.428955,169.526108 
	C166.354050,165.571152 169.925491,159.386002 172.183441,152.281815 
	C175.248016,142.639679 175.347198,132.967606 171.638458,123.446106 
	C171.339539,122.678680 170.940292,119.138664 168.714020,123.340393 
z"/>
<path fill="#F4F4F4" opacity="1.000000" stroke="none" 
	d="
M636.950317,197.003433 
	C634.707947,201.875153 632.904602,206.572983 630.328674,210.800049 
	C627.179688,215.967468 622.413330,219.044342 616.054260,217.949234 
	C609.641479,216.844849 606.761108,212.015091 604.999634,206.330093 
	C604.481262,204.657074 604.183289,202.915771 603.774048,201.161758 
	C601.244873,204.843979 599.164917,208.670761 596.328674,211.815430 
	C592.000549,216.614349 586.537292,219.567688 579.830139,217.538361 
	C573.288818,215.559219 570.087952,210.216660 569.789185,203.951447 
	C569.468323,197.221771 570.625183,190.425323 571.076843,183.653992 
	C571.475098,177.683136 571.898743,171.710403 572.101013,165.731400 
	C572.219910,162.215790 576.150696,158.654083 580.924866,158.285980 
	C585.343994,157.945251 586.622192,161.180893 586.355530,164.421722 
	C585.716064,172.191833 584.259460,179.891617 583.491394,187.655273 
	C582.970032,192.925064 582.549500,198.307373 583.089783,203.535400 
	C583.351196,206.065292 585.693848,210.081223 587.512390,210.326767 
	C589.888123,210.647507 593.520630,208.527695 595.140381,206.358658 
	C601.287231,198.127289 602.857788,188.100906 604.752502,178.297592 
	C605.414795,174.870972 605.736816,171.374390 606.123718,167.899673 
	C606.789978,161.914795 610.764709,158.258240 616.870483,158.236908 
	C620.933777,158.222717 620.803040,161.177277 620.448792,163.883743 
	C619.606384,170.320816 618.291382,176.705750 617.677368,183.160263 
	C617.064819,189.599228 616.917664,196.096863 616.899719,202.569687 
	C616.893921,204.639435 617.674377,206.843979 618.583618,208.754318 
	C620.167969,212.082870 622.969849,212.594345 625.389038,209.979050 
	C627.599976,207.588898 629.731995,204.722855 630.721680,201.683228 
	C633.443176,193.325562 636.053101,184.868225 637.778503,176.264114 
	C640.510498,162.640823 658.127808,152.972473 670.765503,158.686996 
	C675.546265,160.848770 677.805542,164.754379 676.985596,169.439514 
	C676.225342,173.783295 673.115540,176.096954 667.522888,176.398102 
	C667.362000,174.607590 667.374939,172.774734 667.006958,171.021851 
	C665.826843,165.401428 660.392883,162.009232 654.930176,163.353897 
	C649.052551,164.800705 647.110901,170.100037 650.945679,174.788025 
	C652.720215,176.957352 654.938049,178.795715 657.104126,180.605530 
	C660.171143,183.168152 663.440979,185.487915 666.510376,188.047852 
	C676.446289,196.334686 676.073242,205.682495 665.324158,212.938095 
	C658.752563,217.373947 651.525085,219.651184 643.553589,217.166168 
	C639.911194,216.030685 637.421265,213.737823 637.774353,209.507599 
	C638.103760,205.560623 640.545776,203.737823 644.231506,203.193146 
	C647.120300,210.831726 649.401489,213.073502 654.789490,212.179062 
	C657.292603,211.763519 660.781799,210.233093 661.553040,208.301361 
	C662.433777,206.095398 661.424072,202.503113 660.064758,200.206223 
	C658.610107,197.748062 655.852783,196.023224 653.554199,194.110275 
	C649.472107,190.713058 645.307129,187.415451 640.795410,183.767776 
	C639.513794,188.162155 638.280273,192.391495 636.950317,197.003433 
z"/>
<path fill="#F4F4F4" opacity="1.000000" stroke="none" 
	d="
M502.894775,208.011948 
	C506.168579,202.249969 509.181396,196.760818 512.580261,190.568420 
	C514.400696,190.258179 516.040222,191.231476 514.619812,194.097290 
	C511.617188,200.155502 509.109497,206.770813 504.820190,211.815323 
	C495.562225,222.703278 481.384552,219.484924 476.556305,205.958572 
	C473.378204,197.055069 474.082184,187.895340 475.373077,178.793472 
	C477.978455,160.423325 483.154327,142.752319 490.259888,125.630562 
	C490.700500,124.568802 491.022858,123.457962 491.572540,121.873207 
	C478.475891,119.138519 465.670654,115.960602 452.834137,121.830627 
	C439.476837,127.938812 433.777222,146.225540 441.094238,158.971756 
	C443.587555,163.315079 447.420288,165.637283 452.194183,166.740707 
	C453.160767,166.964111 453.985870,167.799683 454.876190,168.353043 
	C453.958618,169.076706 453.143585,170.192719 452.107666,170.463501 
	C441.430206,173.254288 430.175934,164.630203 428.892242,152.771790 
	C427.528778,140.176636 432.770905,130.365387 442.156281,122.601570 
	C454.722351,112.206551 469.475616,108.318436 485.510956,109.675316 
	C496.113617,110.572487 506.626953,112.483116 517.216919,113.589584 
	C522.889526,114.182274 528.738159,115.525482 533.943359,111.160652 
	C536.038269,109.404045 537.052551,111.104057 537.040833,113.501251 
	C537.013855,118.984871 533.131470,124.981567 527.261108,125.875366 
	C521.480652,126.755470 515.429749,126.058113 509.512939,125.753487 
	C506.893524,125.618629 504.312073,124.745995 500.759216,124.010849 
	C497.970825,134.641815 494.853058,145.129257 492.514160,155.787613 
	C489.335480,170.272842 486.871307,184.900970 488.852905,199.847717 
	C489.070343,201.487732 489.384613,203.138748 489.878510,204.714264 
	C492.316345,212.490997 496.269623,213.577728 502.894775,208.011948 
z"/>
<path fill="#F4F4F4" opacity="1.000000" stroke="none" 
	d="
M126.365128,184.966415 
	C126.914589,182.470062 127.421089,180.402390 127.927597,178.334717 
	C129.332443,180.360336 131.380249,182.203232 132.017899,184.446884 
	C133.723160,190.447098 131.653198,195.955475 128.443024,201.003738 
	C115.654160,221.115372 83.061539,225.408417 65.473160,209.346268 
	C55.239666,200.000793 55.293629,183.348312 66.259827,172.269379 
	C70.971931,167.508835 76.928963,163.980560 82.473915,159.776016 
	C82.249794,159.577835 81.492661,158.769440 80.605988,158.144974 
	C65.283821,147.353836 64.578011,130.863785 78.942978,118.863251 
	C89.933266,109.681908 106.582649,107.519760 117.196609,113.908401 
	C122.131317,116.878670 125.100983,121.129784 124.805107,127.014153 
	C124.512001,132.843262 121.132210,136.836456 116.194313,139.606888 
	C115.687675,139.891144 114.983727,139.823730 114.145432,139.954819 
	C114.033081,139.110779 113.693787,138.381699 113.908516,137.899155 
	C116.683159,131.664093 115.487373,126.069511 110.775696,121.436287 
	C105.353653,116.104538 98.604088,115.532875 91.699081,117.681244 
	C81.529137,120.845467 77.697212,131.286057 83.126854,140.617676 
	C87.184563,147.591446 93.885429,151.246552 100.910805,154.523254 
	C102.472450,155.251633 103.638817,156.827484 104.987167,158.013138 
	C103.445808,158.844879 101.977020,159.874466 100.349548,160.471466 
	C95.384323,162.292801 89.954842,163.240341 85.439369,165.814377 
	C76.053940,171.164520 71.684601,179.710846 73.237488,190.573486 
	C74.739983,201.083649 80.670380,208.281265 91.062462,211.115021 
	C102.050560,214.111313 111.930382,211.431458 118.784294,202.415207 
	C122.437790,197.609085 123.881226,191.122955 126.365128,184.966415 
z"/>
<path fill="#F5F5F5" opacity="1.000000" stroke="none" 
	d="
M706.063904,220.129822 
	C694.875366,218.784637 687.433655,211.519089 687.125305,199.544006 
	C686.840759,188.494247 688.529968,177.393311 689.361389,166.315781 
	C689.434937,165.335800 689.594238,164.362259 689.755066,163.047821 
	C687.155579,163.047821 684.728210,163.047821 681.976685,163.047821 
	C681.976685,161.337189 681.976685,159.947739 681.976685,158.366196 
	C684.917664,158.207077 687.541382,158.065109 690.699829,157.894226 
	C691.763000,151.755875 692.801575,145.581635 693.910400,139.420013 
	C694.656311,135.274673 703.155090,130.161682 706.713196,132.083008 
	C707.849792,132.696716 708.554443,135.435333 708.319458,137.034561 
	C707.312195,143.888199 705.880676,150.679489 704.501343,158.040344 
	C710.529480,157.403046 716.075928,156.816666 721.648804,156.227509 
	C723.445190,160.081284 722.151062,161.724854 718.268494,161.721466 
	C713.468201,161.717270 708.667847,161.720444 703.483215,161.720444 
	C701.376221,176.026215 698.819336,189.568558 701.749939,203.359894 
	C702.697754,207.820541 704.078247,212.412979 709.388855,213.374695 
	C714.595520,214.317551 717.609192,210.599731 720.372925,206.985291 
	C721.767578,205.161438 722.853088,203.101212 725.013855,199.656479 
	C725.820007,202.020538 726.917847,203.511490 726.599487,204.580551 
	C724.126404,212.882721 715.408569,219.494019 706.063904,220.129822 
z"/>
<path fill="#F7821C" opacity="1.000000" stroke="none" 
	d="
M1035.464600,164.284607 
	C1037.525879,163.544800 1039.255615,162.540543 1040.993408,162.526062 
	C1054.282715,162.415298 1067.586304,162.160873 1080.858887,162.658569 
	C1087.696899,162.914963 1092.094727,168.454727 1092.139526,174.978760 
	C1092.185059,181.583344 1087.967041,187.032349 1080.980835,187.305496 
	C1067.551147,187.830597 1054.082397,187.689606 1040.639648,187.387070 
	C1035.125488,187.262970 1031.401855,183.755920 1029.942505,178.419388 
	C1028.365479,172.652405 1030.352173,167.988831 1035.464600,164.284607 
z"/>
<path fill="#F7821C" opacity="1.000000" stroke="none" 
	d="
M794.000854,187.775238 
	C788.671814,187.771072 783.836304,187.921204 779.014526,187.728729 
	C770.609253,187.393188 765.230774,182.285797 765.287292,174.963120 
	C765.343506,167.682281 770.918091,162.452942 779.174988,162.352005 
	C790.830261,162.209549 802.489807,162.214798 814.145142,162.351868 
	C822.520508,162.450348 827.976013,167.517868 828.062317,174.878250 
	C828.149475,182.314514 822.923218,187.419220 814.482361,187.713181 
	C807.829102,187.944916 801.161743,187.769745 794.000854,187.775238 
z"/>
<path fill="#FB841D" opacity="1.000000" stroke="none" 
	d="
M928.162415,338.399567 
	C920.294067,337.001312 916.343933,333.070679 916.176941,325.680847 
	C915.898499,313.358002 915.904785,301.020782 916.152344,288.696869 
	C916.307617,280.967255 921.570923,275.845642 928.608887,275.766418 
	C935.711792,275.686432 941.069824,280.613098 941.265869,288.395538 
	C941.580444,300.882324 941.578857,313.389435 941.246704,325.875641 
	C941.037231,333.751312 936.650696,337.667633 928.162415,338.399567 
z"/>
<path fill="#FA831C" opacity="1.000000" stroke="none" 
	d="
M1030.326172,56.898491 
	C1038.123413,54.890331 1043.136841,56.595818 1046.280396,62.036434 
	C1049.446777,67.516472 1048.540894,73.016289 1043.324463,78.316589 
	C1035.260742,86.509949 1027.134888,94.643806 1018.941223,102.707085 
	C1012.872009,108.679657 1005.007019,109.055992 999.855103,103.811852 
	C994.751587,98.616943 994.914978,91.050041 1000.869019,85.107246 
	C1010.401611,75.592896 1020.251648,66.396606 1030.326172,56.898491 
z"/>
<path fill="#FA831C" opacity="1.000000" stroke="none" 
	d="
M834.334656,287.347748 
	C832.060791,289.322083 830.225952,291.358704 827.977051,292.702545 
	C823.101257,295.616180 816.753174,294.457489 812.875488,290.315735 
	C808.913391,286.083832 808.255310,279.502136 811.854248,274.680206 
	C814.326843,271.367310 817.422363,268.504333 820.347839,265.547455 
	C826.677368,259.149811 832.940063,252.676239 839.488220,246.507629 
	C845.285583,241.046204 852.747681,241.216827 857.766907,246.481873 
	C862.574768,251.525177 862.483765,258.921753 857.169556,264.426208 
	C849.761963,272.098907 842.124817,279.549957 834.334656,287.347748 
z"/>
<path fill="#FC841D" opacity="1.000000" stroke="none" 
	d="
M837.012695,101.011963 
	C829.223633,93.222885 821.657288,85.715195 814.160278,78.138847 
	C808.426331,72.344185 808.071838,64.646530 813.191833,59.488564 
	C818.345398,54.296749 825.946228,54.568401 831.833679,60.351437 
	C839.674927,68.053673 847.404541,75.869904 855.167114,83.652061 
	C862.229736,90.732437 863.151672,98.166733 857.687866,103.740715 
	C852.112488,109.428436 844.542664,108.510361 837.012695,101.011963 
z"/>
<path fill="#FB841D" opacity="1.000000" stroke="none" 
	d="
M1024.013916,288.015137 
	C1016.219788,280.221802 1008.655762,272.703796 1001.145264,265.132721 
	C995.031616,258.969696 994.639038,251.500900 1000.064209,246.158966 
	C1005.340393,240.963669 1012.700195,241.306946 1018.693665,247.206085 
	C1026.531372,254.920532 1034.269165,262.736664 1042.037842,270.521027 
	C1049.111450,277.608643 1049.941162,284.967834 1044.323120,290.578461 
	C1038.778687,296.115570 1031.298706,295.253662 1024.013916,288.015137 
z"/>
<path fill="#FB841D" opacity="1.000000" stroke="none" 
	d="
M941.215881,62.606522 
	C939.636169,70.678635 934.786682,74.723816 927.757874,74.239563 
	C921.178528,73.786278 916.324463,68.864342 916.166931,61.552361 
	C915.901733,49.246338 915.892822,36.926151 916.162109,24.620369 
	C916.334717,16.734228 921.914795,11.457744 929.058472,11.616688 
	C936.156982,11.774629 941.190796,17.185547 941.273376,25.221354 
	C941.399902,37.531898 941.281372,49.844959 941.215881,62.606522 
z"/>
<path fill="#F5F5F5" opacity="1.000000" stroke="none" 
	d="
M548.548706,172.377380 
	C539.914368,184.378143 537.691956,197.939377 536.689270,211.827072 
	C536.457458,215.037613 535.953552,217.400955 532.193176,218.379776 
	C526.988708,219.734497 524.229431,218.676361 524.019226,213.179443 
	C523.767029,206.582260 524.661255,199.937790 525.117249,193.317795 
	C525.802063,183.374283 526.564148,173.436035 527.233032,163.491486 
	C527.406799,160.908600 532.613281,157.491943 536.870483,157.386475 
	C540.651978,157.292786 541.190125,160.040009 541.123596,162.813431 
	C541.034973,166.509094 540.551086,170.195251 541.011047,174.282669 
	C542.232239,172.536835 543.449036,170.787918 544.675659,169.045883 
	C546.584290,166.335281 548.239075,163.387497 550.474731,160.979691 
	C553.621948,157.590073 557.855164,155.554199 562.092224,158.214127 
	C564.359253,159.637314 566.451172,162.936584 566.726685,165.586304 
	C567.226746,170.394501 563.317810,172.647461 559.355042,174.311111 
	C554.672424,168.195206 553.917969,168.047562 548.548706,172.377380 
z"/>
<path fill="#F4F4F4" opacity="1.000000" stroke="none" 
	d="
M254.387360,143.650177 
	C251.511185,139.866058 251.120087,135.909195 254.163025,132.936249 
	C255.998337,131.143143 259.691498,129.707794 261.959045,130.315643 
	C264.450134,130.983414 267.493195,133.914291 268.024078,136.353546 
	C268.552368,138.780746 266.974518,142.563690 265.041718,144.423340 
	C261.980927,147.368240 258.008484,146.761673 254.387360,143.650177 
z"/>
</svg>