<svg version="1.1" id="Layer_1" xmlns="http://www.w3.org/2000/svg" xmlns:xlink="http://www.w3.org/1999/xlink" x="0px" y="0px"
	 width="100%" viewBox="0 0 1077 357" enable-background="new 0 0 1077 357" xml:space="preserve">
<path fill="#FEFEFE" opacity="1.000000" stroke="none" 
	d="
M691.000000,358.000000 
	C460.666656,358.000000 230.833328,358.000000 1.000000,358.000000 
	C1.000000,239.000000 1.000000,120.000000 1.000000,1.000000 
	C360.000000,1.000000 719.000000,1.000000 1078.000000,1.000000 
	C1078.000000,120.000000 1078.000000,239.000000 1078.000000,358.000000 
	C949.166687,358.000000 820.333313,358.000000 691.000000,358.000000 
M925.821594,251.416946 
	C980.325378,225.989868 987.831604,155.589325 939.749146,120.790733 
	C910.852539,99.877480 871.508850,102.743576 844.215637,127.750008 
	C819.231506,150.640823 813.771484,190.743073 831.327820,220.297226 
	C849.478943,250.852859 888.136047,266.665680 925.821594,251.416946 
M355.828186,217.457382 
	C351.296661,214.158646 350.965790,209.057098 351.248291,204.371017 
	C351.888245,193.755707 353.071136,183.158173 354.484406,172.613876 
	C354.889648,169.590515 354.043091,168.434998 351.550995,167.398407 
	C340.159576,162.660187 329.271484,163.495728 319.366608,170.874557 
	C308.823639,178.728745 304.077240,189.603653 303.106079,202.695312 
	C302.775848,207.146790 300.366699,211.791290 297.824585,215.630554 
	C295.443268,219.226959 291.856506,218.315994 290.314575,214.157089 
	C289.463013,211.860275 289.030273,209.312561 288.913605,206.854004 
	C287.965454,186.868073 292.192535,167.444595 295.500977,147.925095 
	C297.029663,138.905762 298.743591,129.914291 300.040283,120.862450 
	C300.268677,119.267944 299.328827,116.543236 298.100067,115.883522 
	C294.427673,113.911888 285.256439,119.620033 284.701263,123.870773 
	C283.105804,136.086609 281.521545,148.304108 280.007233,160.530167 
	C279.713440,162.902328 279.330139,164.702545 276.229675,164.487228 
	C258.966095,163.288239 239.228500,181.083847 240.007523,203.795700 
	C240.112976,206.870193 238.838135,210.355957 237.178436,213.011215 
	C235.865219,215.112152 232.981171,216.231186 230.794693,217.786270 
	C229.257812,215.413223 226.638687,213.143448 226.400406,210.646484 
	C225.835678,204.728226 226.000977,198.661072 226.610886,192.730179 
	C227.358673,185.458755 229.010223,178.283997 229.935501,171.024673 
	C230.180878,169.099548 229.855484,166.339600 228.635071,165.151093 
	C226.221481,162.800568 216.528046,167.394669 216.095978,170.911209 
	C214.898148,180.660141 213.476593,190.404922 212.892365,200.196030 
	C212.602066,205.061249 213.117203,210.320053 214.729141,214.884827 
	C218.672287,226.051239 230.944000,227.821960 238.477386,218.721420 
	C239.679504,217.269211 240.789581,215.740845 242.047607,214.111160 
	C250.649872,228.891464 264.394684,227.372421 271.542816,212.504074 
	C272.642822,210.216003 273.727844,207.920715 275.355865,204.503571 
	C276.783722,213.635696 278.356201,221.625900 287.410583,224.014999 
	C296.151276,226.321320 300.723053,220.175217 304.971436,213.403015 
	C309.118896,220.848877 314.235931,226.317581 323.050171,223.885117 
	C331.318481,221.603302 333.716949,213.651108 337.479828,206.389755 
	C338.103943,208.816574 338.490814,210.525742 338.984314,212.203552 
	C340.805756,218.395874 344.409424,222.918121 351.028259,224.210068 
	C357.501282,225.473511 362.704712,222.752579 366.143860,217.607422 
	C369.252472,212.956711 371.452515,207.680298 373.820068,202.571747 
	C374.189606,201.774338 373.317047,200.401276 373.018860,199.294403 
	C372.011536,200.033844 370.604980,200.557678 370.068359,201.551300 
	C368.098907,205.197998 366.927521,209.390533 364.459045,212.614471 
	C362.667633,214.954071 359.303040,216.089127 355.828186,217.457382 
M142.072937,212.496506 
	C139.631577,215.528763 137.043701,218.833954 132.658264,217.793182 
	C128.065918,216.703308 127.359444,212.283890 126.217247,208.461884 
	C126.169914,208.303513 126.135452,208.134338 126.134659,207.970001 
	C126.095314,199.841904 125.987114,191.712631 126.118027,183.587173 
	C126.134285,182.578278 127.197365,181.168137 128.155914,180.655533 
	C141.634659,173.447662 147.859375,161.302261 150.880020,147.119690 
	C152.759247,138.296280 152.265503,129.432022 148.165817,121.294334 
	C146.948837,118.878693 143.232925,115.537987 141.495270,115.970276 
	C135.848419,117.375099 130.067535,119.400444 127.592865,125.946228 
	C119.544037,147.236313 114.186974,169.194061 112.412148,191.838333 
	C111.831604,199.245178 112.777702,207.292343 115.201012,214.293747 
	C118.976173,225.200851 131.403427,227.959564 140.114609,220.347839 
	C143.883865,217.054291 146.392319,212.303040 149.395538,208.157455 
	C150.201859,207.044418 150.722061,205.724106 151.373596,204.498962 
	C151.772797,204.604446 152.171997,204.709930 152.571198,204.815414 
	C151.582504,212.180420 150.840637,219.588989 149.550003,226.900696 
	C147.353119,239.346634 144.788696,251.727417 142.436401,264.146484 
	C142.049500,266.189117 141.129425,268.682068 144.519516,269.187225 
	C148.937332,269.845551 156.044067,264.753296 156.821838,260.303009 
	C158.597412,250.143341 160.525391,240.000305 161.888046,229.783371 
	C162.446396,225.596970 163.835373,224.408676 168.104019,224.394226 
	C194.863678,224.303757 208.304245,192.249954 202.376633,175.292114 
	C198.267014,163.535217 185.284439,160.531296 177.128708,169.964523 
	C173.730087,173.895477 171.732010,179.041885 169.131607,183.655075 
	C168.512131,184.754044 168.030930,185.930984 166.951294,188.192307 
	C167.335022,181.074738 167.880341,175.505920 167.834549,169.941971 
	C167.810699,167.046021 166.720245,164.295837 162.683945,164.778992 
	C157.172256,165.438766 153.155212,168.266586 153.301193,171.600433 
	C153.939056,186.167786 149.503723,199.377121 142.072937,212.496506 
M628.139954,216.850632 
	C625.118042,217.360626 621.509155,219.136307 619.216797,218.073181 
	C616.064270,216.611130 613.908020,213.001007 610.796021,209.760498 
	C608.074707,210.162369 605.846252,212.304108 605.719910,216.187378 
	C605.574463,220.661240 608.587708,222.684128 612.353699,223.791855 
	C621.595520,226.510269 635.007385,220.928955 639.695618,212.498215 
	C642.610107,207.257370 642.170227,202.183929 638.054993,197.793198 
	C635.904297,195.498489 633.340820,193.587738 630.941467,191.529617 
	C627.027466,188.172241 622.775452,185.129181 619.318359,181.355850 
	C617.803772,179.702759 616.745300,176.054916 617.560547,174.255814 
	C618.511780,172.156662 621.561035,170.262436 624.011841,169.738693 
	C629.694580,168.524307 634.470093,172.596039 635.136108,178.451324 
	C635.300415,179.896362 635.290894,181.361160 635.370178,182.999619 
	C640.354492,182.873642 643.657471,180.707306 644.789673,176.131241 
	C645.924072,171.546265 643.954956,168.036041 639.969971,165.600540 
	C630.100464,159.568527 607.286438,167.200455 605.913879,181.759903 
	C605.281006,188.473038 603.253418,195.138611 601.166992,201.602661 
	C599.655457,206.285583 597.476746,210.916916 594.739136,214.996506 
	C591.704224,219.519165 587.596741,218.776428 586.134888,213.474167 
	C585.008728,209.389633 584.462585,204.903046 584.829102,200.697266 
	C585.709595,190.594009 587.320129,180.555817 588.539612,170.479691 
	C588.833984,168.047073 589.369873,165.177765 585.757263,164.604401 
	C580.599915,163.785843 574.952271,168.284073 574.335449,173.509064 
	C573.925659,176.980865 573.612549,180.474396 572.982422,183.907959 
	C571.118652,194.063171 569.476013,204.393524 563.143127,212.929428 
	C561.614868,214.989365 557.935425,217.174515 555.910889,216.663712 
	C553.863831,216.147186 551.552917,212.474106 551.285889,209.977539 
	C550.727112,204.752319 551.185242,199.367889 551.682373,194.091873 
	C552.444641,186.001663 553.828003,177.965912 554.451416,169.868835 
	C554.677429,166.934723 553.078369,164.324463 549.249207,164.620087 
	C544.816589,164.962311 540.459656,168.435104 540.253601,171.489639 
	C539.694824,179.772827 538.638977,188.034607 538.395569,196.322968 
	C538.208252,202.699783 537.883057,209.401260 539.553650,215.421585 
	C541.693604,223.133804 549.333496,226.530914 556.260681,223.499710 
	C560.194519,221.778366 563.650146,218.559570 566.731750,215.434021 
	C568.875061,213.260071 570.016113,210.097885 571.815247,207.017105 
	C572.351440,209.291962 572.645996,211.111862 573.212952,212.842529 
	C575.061707,218.485275 577.950562,223.275604 584.432617,224.290421 
	C590.862183,225.297043 595.674500,222.167740 598.554199,216.905197 
	C601.640320,211.265244 603.850830,205.129562 606.224121,199.123566 
	C607.331848,196.320282 607.922607,193.312683 608.847473,190.045227 
	C615.160156,195.263092 621.037598,199.894196 626.641235,204.835739 
	C630.157776,207.936783 631.941040,211.744507 628.139954,216.850632 
M399.892273,167.469269 
	C404.219757,174.562958 410.583038,177.747772 418.799805,177.020905 
	C420.243958,176.893143 421.603027,175.803772 423.001404,175.158478 
	C421.787781,174.353012 420.677032,173.186371 419.342255,172.806046 
	C414.189026,171.337646 410.494293,168.281250 408.350555,163.404190 
	C401.584686,148.011734 410.089111,130.380127 426.282166,126.202103 
	C437.484833,123.311653 448.326385,125.789955 459.610077,128.104553 
	C459.035156,129.797379 458.683289,131.050262 458.192505,132.246124 
	C451.217804,149.240082 446.075226,166.751938 443.504059,184.962021 
	C442.195007,194.233566 441.434387,203.558304 444.810394,212.600372 
	C449.751282,225.833664 463.741058,228.919388 472.836639,218.206390 
	C477.120972,213.160217 479.542023,206.501266 482.564514,200.451782 
	C482.962433,199.655396 481.915222,198.136993 481.537354,196.952988 
	C480.601990,197.791199 479.317291,198.454697 478.794769,199.499420 
	C477.014343,203.058945 475.800598,206.926239 473.809113,210.349457 
	C471.556000,214.222443 468.826324,218.707779 463.555237,217.634796 
	C458.237976,216.552429 457.219666,211.248810 457.167328,206.884064 
	C457.042206,196.447861 456.661835,185.833893 458.304474,175.599854 
	C460.740875,160.420685 464.837494,145.507996 468.239807,130.426727 
	C474.386200,131.463882 479.109100,132.617004 483.889771,132.956238 
	C487.802399,133.233887 491.928223,133.108307 495.701324,132.147507 
	C501.489777,130.673553 504.191132,126.060692 504.954559,120.350113 
	C505.089722,119.338806 504.488190,118.229027 504.226868,117.164734 
	C503.215515,117.441803 502.201569,117.709885 501.193268,117.997658 
	C498.384644,118.799202 495.578003,120.272491 492.771179,120.271065 
	C487.637573,120.268456 482.504211,119.398132 477.371124,118.885666 
	C466.945374,117.844810 456.514832,115.906334 446.095581,115.966103 
	C429.978912,116.058525 415.664917,121.771042 404.963013,134.333176 
	C396.806854,143.907013 394.181061,154.785049 399.892273,167.469269 
M59.738247,225.407898 
	C75.273857,225.836639 88.222015,220.602600 97.280266,207.596863 
	C101.439812,201.624634 103.308502,194.917526 100.164085,187.785294 
	C99.608421,186.524902 97.995407,185.730682 96.870667,184.721191 
	C96.433479,186.002289 95.643944,187.275986 95.616821,188.565720 
	C95.452583,196.374298 93.000084,203.361160 87.844376,209.161026 
	C80.271523,217.680130 70.728859,220.524094 59.782322,217.289337 
	C49.453358,214.237091 43.705154,206.873260 42.372669,196.327576 
	C41.016556,185.594910 45.517021,177.246399 54.741135,172.113312 
	C59.568161,169.427124 65.368088,168.510117 70.684425,166.666611 
	C71.909134,166.241943 72.952499,165.294296 74.079315,164.587311 
	C73.138786,163.461456 72.397224,162.032074 71.223160,161.262482 
	C66.241661,157.997101 60.611298,155.522156 56.188065,151.650238 
	C49.154858,145.493683 47.999344,136.378403 52.382568,130.056213 
	C56.841888,123.624252 67.053337,121.052200 74.951851,124.371475 
	C82.618629,127.593369 86.058167,135.319656 83.415466,143.269623 
	C83.137894,144.104660 83.171219,145.043076 83.067459,145.876007 
	C83.751816,146.081909 84.086937,146.293854 84.378647,146.245270 
	C84.852394,146.166321 85.337151,145.981247 85.749031,145.729385 
	C90.764946,142.662170 94.028084,138.390930 93.901207,132.324692 
	C93.773445,126.215744 90.281799,122.154526 85.013947,119.452034 
	C74.296059,113.953598 58.487591,116.439659 48.017349,125.271988 
	C33.863823,137.211380 34.511806,153.420792 49.562637,164.286102 
	C50.458702,164.932983 51.254944,165.718155 52.202087,166.528320 
	C48.395279,168.841339 44.597752,170.662292 41.396744,173.227600 
	C38.057056,175.904037 34.815601,178.961044 32.360004,182.437149 
	C22.721947,196.080612 26.479834,212.609268 41.291073,220.142075 
	C46.639061,222.862000 52.960464,223.667953 59.738247,225.407898 
M669.405151,182.212494 
	C670.022888,178.131348 670.640564,174.050201 671.304321,169.664764 
	C676.390259,169.440933 681.184448,169.069641 685.978577,169.068863 
	C689.927490,169.068222 691.059265,167.504288 689.660400,163.552231 
	C684.031128,163.799850 678.460266,164.044907 672.487976,164.307632 
	C673.854309,156.716202 675.255554,149.729385 676.256897,142.685760 
	C676.454712,141.294327 675.494751,138.799377 674.414185,138.334412 
	C670.591064,136.689316 662.640259,141.870087 661.909180,146.104645 
	C660.814636,152.443710 659.746887,158.787399 658.652405,165.219559 
	C656.005005,165.360840 653.794922,165.230591 651.724854,165.707535 
	C650.858093,165.907257 649.942017,167.323135 649.733459,168.328232 
	C649.633484,168.809921 651.054016,170.043823 651.916748,170.196106 
	C653.626038,170.497879 655.426086,170.285248 657.723450,170.285248 
	C656.954712,175.552872 656.186462,180.273224 655.590393,185.015198 
	C654.362854,194.781555 653.060913,204.585724 656.974121,214.092880 
	C660.404663,222.427292 667.967468,227.219727 676.170532,226.426804 
	C683.588074,225.709808 693.163208,217.666000 694.678772,210.678940 
	C694.850342,209.887939 694.131592,208.654663 693.451233,208.042816 
	C693.152649,207.774231 691.727295,208.355560 691.149414,208.904510 
	C690.458069,209.561234 690.194641,210.644012 689.626892,211.459366 
	C686.548523,215.879974 683.408386,220.946060 677.110901,219.592468 
	C670.806458,218.237411 669.512390,212.280106 669.175781,207.016098 
	C668.668396,199.083649 669.190002,191.085388 669.405151,182.212494 
M786.439636,194.344360 
	C793.197144,191.545639 796.562805,186.603958 795.733521,180.698624 
	C794.846375,174.381332 790.223572,169.707962 783.548096,169.558426 
	C770.728088,169.271225 757.888550,169.222839 745.073181,169.607788 
	C737.803589,169.826157 732.913208,175.582855 733.068909,182.425507 
	C733.223083,189.206879 738.385681,194.609604 745.659912,194.706970 
	C758.980652,194.885284 772.307251,194.627899 786.439636,194.344360 
M1013.635010,194.823792 
	C1024.782837,194.811951 1035.934570,194.974762 1047.077026,194.724945 
	C1054.134399,194.566727 1059.067627,189.451462 1059.373047,182.742371 
	C1059.674072,176.130417 1054.963867,169.925400 1048.230469,169.702637 
	C1034.939453,169.262955 1021.615417,169.295395 1008.321777,169.692520 
	C1001.871521,169.885208 997.405640,174.859131 996.831055,180.852264 
	C996.259155,186.817337 999.624023,192.299988 1005.299255,193.986298 
	C1007.637024,194.680939 1010.214661,194.568542 1013.635010,194.823792 
M892.595276,81.146530 
	C901.993225,82.856499 908.605652,78.006874 908.837219,68.617096 
	C909.136719,56.473476 909.064087,44.314808 908.871704,32.167057 
	C908.750244,24.498680 903.557190,19.190758 896.621948,19.001360 
	C889.574341,18.808891 884.056152,23.606314 883.784729,31.432419 
	C883.352356,43.895535 883.571716,56.385338 883.699585,68.861969 
	C883.757751,74.539322 886.544250,78.649399 892.595276,81.146530 
M908.938599,318.497925 
	C908.927368,310.832336 909.111145,303.160034 908.848816,295.503052 
	C908.596191,288.128784 903.529053,282.980530 896.766479,282.637634 
	C890.028320,282.296021 884.199707,287.049774 883.925903,294.479584 
	C883.448059,307.448242 883.435303,320.459656 883.910583,333.428131 
	C884.190247,341.059509 889.587769,345.412598 896.713013,345.208099 
	C903.544800,345.011993 908.470154,339.988190 908.865967,332.492401 
	C909.094055,328.171204 908.927490,323.829193 908.938599,318.497925 
M810.629700,250.933990 
	C800.958191,260.317871 791.219421,269.633698 781.640503,279.111115 
	C775.847656,284.842438 775.610901,292.045166 780.720459,297.309875 
	C785.996216,302.745819 793.377441,302.707581 799.346375,296.890076 
	C807.817139,288.634125 816.167847,280.252014 824.445007,271.801575 
	C829.487061,266.653992 830.262634,260.838593 826.994202,255.450073 
	C823.809753,250.200089 818.201538,248.463821 810.629700,250.933990 
M1015.033936,77.998718 
	C1015.345032,70.800072 1013.059753,66.451630 1007.727356,64.095879 
	C1002.534790,61.801903 997.599365,63.119999 992.489807,68.216019 
	C984.594604,76.090187 976.706116,83.971252 968.836487,91.871025 
	C962.381958,98.350243 961.836609,105.749306 967.369324,111.192017 
	C972.722595,116.458199 980.159363,116.017334 986.382751,109.887009 
	C994.444946,101.945282 1002.485413,93.977463 1010.344604,85.836708 
	C1012.246887,83.866188 1013.401123,81.173515 1015.033936,77.998718 
M783.366699,87.106689 
	C791.640991,95.312088 799.741699,103.703362 808.254700,111.653099 
	C813.347534,116.409042 820.692810,115.787331 825.345215,110.966637 
	C830.032043,106.110451 830.303101,98.825523 825.477600,93.846237 
	C816.441040,84.521729 807.329529,75.254173 797.902893,66.328720 
	C791.216248,59.997471 780.617371,63.170982 777.776123,71.969208 
	C775.797119,78.097656 778.703308,82.580078 783.366699,87.106689 
M976.418579,249.432663 
	C970.735718,249.735535 966.483459,252.328308 964.464966,257.700745 
	C962.353516,263.320709 964.273987,268.065643 968.402222,272.155762 
	C976.791321,280.467529 985.013428,288.951111 993.520325,297.139465 
	C999.172058,302.579529 1006.948669,302.493408 1011.814514,297.392029 
	C1016.678528,292.292603 1016.338440,284.704773 1010.825439,279.119568 
	C1002.529541,270.714844 994.272522,262.262421 985.697083,254.149323 
	C983.425598,252.000229 980.049500,251.018799 976.418579,249.432663 
M519.389709,177.448410 
	C523.962830,174.988022 525.335938,179.098846 527.373901,181.614349 
	C531.659729,179.814804 535.501587,177.411789 534.854431,172.591522 
	C534.500427,169.954346 532.294373,166.705734 529.980164,165.382080 
	C525.941833,163.072372 521.769409,164.887589 518.760437,168.185699 
	C516.432800,170.737000 514.591370,173.747391 512.656250,176.635696 
	C511.444824,178.443817 510.460388,180.404007 509.374115,182.295959 
	C508.531067,180.124115 508.848022,178.323547 508.961060,176.510284 
	C509.085083,174.519867 509.045105,172.517593 509.033508,170.520737 
	C509.016815,167.646820 509.322479,164.512466 504.918579,164.766785 
	C499.954315,165.053421 495.641571,168.318314 495.529205,171.535416 
	C495.303192,178.008362 494.979858,184.483505 494.467499,190.939545 
	C493.732147,200.205734 492.567200,209.443497 492.066132,218.719360 
	C491.899658,221.800461 492.964386,225.257935 497.222534,225.411285 
	C501.900116,225.579742 504.449585,223.097595 504.857483,218.434525 
	C505.190552,214.626541 505.340576,210.764511 506.118561,207.040695 
	C508.325317,196.478073 510.211609,185.713058 519.389709,177.448410 
M235.810867,140.039963 
	C233.437210,136.929230 230.082443,135.361984 226.672424,137.071884 
	C224.338348,138.242294 221.527237,141.086975 221.387543,143.335876 
	C221.217194,146.078476 222.915924,150.187790 225.113464,151.475891 
	C227.320923,152.769836 231.671387,152.259644 234.120087,150.858170 
	C237.834427,148.732330 238.031769,144.649094 235.810867,140.039963 
z"/>
<path fill="#FF871E" opacity="1.000000" stroke="none" 
	d="
M925.468079,251.568390 
	C888.136047,266.665680 849.478943,250.852859 831.327820,220.297226 
	C813.771484,190.743073 819.231506,150.640823 844.215637,127.750008 
	C871.508850,102.743576 910.852539,99.877480 939.749146,120.790733 
	C987.831604,155.589325 980.325378,225.989868 925.468079,251.568390 
z"/>
<path fill="#2B2B2B" opacity="1.000000" stroke="none" 
	d="
M356.234070,217.609344 
	C359.303040,216.089127 362.667633,214.954071 364.459045,212.614471 
	C366.927521,209.390533 368.098907,205.197998 370.068359,201.551300 
	C370.604980,200.557678 372.011536,200.033844 373.018860,199.294403 
	C373.317047,200.401276 374.189606,201.774338 373.820068,202.571747 
	C371.452515,207.680298 369.252472,212.956711 366.143860,217.607422 
	C362.704712,222.752579 357.501282,225.473511 351.028259,224.210068 
	C344.409424,222.918121 340.805756,218.395874 338.984314,212.203552 
	C338.490814,210.525742 338.103943,208.816574 337.479828,206.389755 
	C333.716949,213.651108 331.318481,221.603302 323.050171,223.885117 
	C314.235931,226.317581 309.118896,220.848877 304.971436,213.403015 
	C300.723053,220.175217 296.151276,226.321320 287.410583,224.014999 
	C278.356201,221.625900 276.783722,213.635696 275.355865,204.503571 
	C273.727844,207.920715 272.642822,210.216003 271.542816,212.504074 
	C264.394684,227.372421 250.649872,228.891464 242.047607,214.111160 
	C240.789581,215.740845 239.679504,217.269211 238.477386,218.721420 
	C230.944000,227.821960 218.672287,226.051239 214.729141,214.884827 
	C213.117203,210.320053 212.602066,205.061249 212.892365,200.196030 
	C213.476593,190.404922 214.898148,180.660141 216.095978,170.911209 
	C216.528046,167.394669 226.221481,162.800568 228.635071,165.151093 
	C229.855484,166.339600 230.180878,169.099548 229.935501,171.024673 
	C229.010223,178.283997 227.358673,185.458755 226.610886,192.730179 
	C226.000977,198.661072 225.835678,204.728226 226.400406,210.646484 
	C226.638687,213.143448 229.257812,215.413223 230.794693,217.786270 
	C232.981171,216.231186 235.865219,215.112152 237.178436,213.011215 
	C238.838135,210.355957 240.112976,206.870193 240.007523,203.795700 
	C239.228500,181.083847 258.966095,163.288239 276.229675,164.487228 
	C279.330139,164.702545 279.713440,162.902328 280.007233,160.530167 
	C281.521545,148.304108 283.105804,136.086609 284.701263,123.870773 
	C285.256439,119.620033 294.427673,113.911888 298.100067,115.883522 
	C299.328827,116.543236 300.268677,119.267944 300.040283,120.862450 
	C298.743591,129.914291 297.029663,138.905762 295.500977,147.925095 
	C292.192535,167.444595 287.965454,186.868073 288.913605,206.854004 
	C289.030273,209.312561 289.463013,211.860275 290.314575,214.157089 
	C291.856506,218.315994 295.443268,219.226959 297.824585,215.630554 
	C300.366699,211.791290 302.775848,207.146790 303.106079,202.695312 
	C304.077240,189.603653 308.823639,178.728745 319.366608,170.874557 
	C329.271484,163.495728 340.159576,162.660187 351.550995,167.398407 
	C354.043091,168.434998 354.889648,169.590515 354.484406,172.613876 
	C353.071136,183.158173 351.888245,193.755707 351.248291,204.371017 
	C350.965790,209.057098 351.296661,214.158646 356.234070,217.609344 
M277.075867,178.780823 
	C276.823730,176.972107 277.242157,174.426590 276.203888,173.481644 
	C271.601776,169.293167 261.124084,171.332977 258.294312,177.058212 
	C252.869217,188.034363 251.660034,199.618683 255.239105,211.387772 
	C255.910629,213.595917 258.398407,216.710617 260.133148,216.766556 
	C262.292145,216.836151 265.148926,214.601288 266.603210,212.572342 
	C268.683533,209.669998 270.196960,206.175858 271.187042,202.715454 
	C273.372284,195.078171 275.079315,187.304047 277.075867,178.780823 
M326.597992,172.552048 
	C324.355499,175.007233 321.239319,177.097763 320.033966,179.985779 
	C316.384705,188.729279 315.669800,198.040863 317.208466,207.384476 
	C317.842743,211.236221 318.445923,216.124802 323.076202,216.910309 
	C328.012970,217.747849 329.818817,212.928207 331.035126,209.379364 
	C334.253723,199.988235 336.998474,190.421127 339.576599,180.828598 
	C341.502625,173.662415 339.465759,171.448822 331.808472,171.623291 
	C330.331085,171.656952 328.862091,172.058243 326.597992,172.552048 
z"/>
<path fill="#2A2A2A" opacity="1.000000" stroke="none" 
	d="
M142.293915,212.199829 
	C149.503723,199.377121 153.939056,186.167786 153.301193,171.600433 
	C153.155212,168.266586 157.172256,165.438766 162.683945,164.778992 
	C166.720245,164.295837 167.810699,167.046021 167.834549,169.941971 
	C167.880341,175.505920 167.335022,181.074738 166.951294,188.192307 
	C168.030930,185.930984 168.512131,184.754044 169.131607,183.655075 
	C171.732010,179.041885 173.730087,173.895477 177.128708,169.964523 
	C185.284439,160.531296 198.267014,163.535217 202.376633,175.292114 
	C208.304245,192.249954 194.863678,224.303757 168.104019,224.394226 
	C163.835373,224.408676 162.446396,225.596970 161.888046,229.783371 
	C160.525391,240.000305 158.597412,250.143341 156.821838,260.303009 
	C156.044067,264.753296 148.937332,269.845551 144.519516,269.187225 
	C141.129425,268.682068 142.049500,266.189117 142.436401,264.146484 
	C144.788696,251.727417 147.353119,239.346634 149.550003,226.900696 
	C150.840637,219.588989 151.582504,212.180420 152.571198,204.815414 
	C152.171997,204.709930 151.772797,204.604446 151.373596,204.498962 
	C150.722061,205.724106 150.201859,207.044418 149.395538,208.157455 
	C146.392319,212.303040 143.883865,217.054291 140.114609,220.347839 
	C131.403427,227.959564 118.976173,225.200851 115.201012,214.293747 
	C112.777702,207.292343 111.831604,199.245178 112.412148,191.838333 
	C114.186974,169.194061 119.544037,147.236313 127.592865,125.946228 
	C130.067535,119.400444 135.848419,117.375099 141.495270,115.970276 
	C143.232925,115.537987 146.948837,118.878693 148.165817,121.294334 
	C152.265503,129.432022 152.759247,138.296280 150.880020,147.119690 
	C147.859375,161.302261 141.634659,173.447662 128.155914,180.655533 
	C127.197365,181.168137 126.134285,182.578278 126.118027,183.587173 
	C125.987114,191.712631 126.095314,199.841904 126.134659,207.970001 
	C126.135452,208.134338 126.169914,208.303513 126.217247,208.461884 
	C127.359444,212.283890 128.065918,216.703308 132.658264,217.793182 
	C137.043701,218.833954 139.631577,215.528763 142.293915,212.199829 
M167.305527,202.860748 
	C166.496826,206.260696 165.504974,209.632980 164.984985,213.076523 
	C164.817108,214.188141 165.541611,216.038452 166.450394,216.611938 
	C172.950424,220.713776 181.166916,218.962616 184.644409,212.297882 
	C190.410034,201.247864 191.458405,189.384201 188.617584,177.337204 
	C187.274094,171.639923 182.998596,170.791611 179.135498,175.259705 
	C177.098846,177.615326 175.313309,180.387787 174.165710,183.271072 
	C171.710144,189.440475 169.743134,195.804337 167.305527,202.860748 
M142.971924,148.201981 
	C143.300903,137.321960 141.923309,131.222198 137.440567,126.530052 
	C133.694534,143.068497 130.095978,158.955856 126.497429,174.843231 
	C127.069145,175.170624 127.640862,175.498032 128.212585,175.825424 
	C130.590775,173.675659 133.890930,171.964600 135.164032,169.289017 
	C138.251282,162.800812 140.395004,155.863678 142.971924,148.201981 
z"/>
<path fill="#2C2C2C" opacity="1.000000" stroke="none" 
	d="
M628.456177,216.563751 
	C631.941040,211.744507 630.157776,207.936783 626.641235,204.835739 
	C621.037598,199.894196 615.160156,195.263092 608.847473,190.045227 
	C607.922607,193.312683 607.331848,196.320282 606.224121,199.123566 
	C603.850830,205.129562 601.640320,211.265244 598.554199,216.905197 
	C595.674500,222.167740 590.862183,225.297043 584.432617,224.290421 
	C577.950562,223.275604 575.061707,218.485275 573.212952,212.842529 
	C572.645996,211.111862 572.351440,209.291962 571.815247,207.017105 
	C570.016113,210.097885 568.875061,213.260071 566.731750,215.434021 
	C563.650146,218.559570 560.194519,221.778366 556.260681,223.499710 
	C549.333496,226.530914 541.693604,223.133804 539.553650,215.421585 
	C537.883057,209.401260 538.208252,202.699783 538.395569,196.322968 
	C538.638977,188.034607 539.694824,179.772827 540.253601,171.489639 
	C540.459656,168.435104 544.816589,164.962311 549.249207,164.620087 
	C553.078369,164.324463 554.677429,166.934723 554.451416,169.868835 
	C553.828003,177.965912 552.444641,186.001663 551.682373,194.091873 
	C551.185242,199.367889 550.727112,204.752319 551.285889,209.977539 
	C551.552917,212.474106 553.863831,216.147186 555.910889,216.663712 
	C557.935425,217.174515 561.614868,214.989365 563.143127,212.929428 
	C569.476013,204.393524 571.118652,194.063171 572.982422,183.907959 
	C573.612549,180.474396 573.925659,176.980865 574.335449,173.509064 
	C574.952271,168.284073 580.599915,163.785843 585.757263,164.604401 
	C589.369873,165.177765 588.833984,168.047073 588.539612,170.479691 
	C587.320129,180.555817 585.709595,190.594009 584.829102,200.697266 
	C584.462585,204.903046 585.008728,209.389633 586.134888,213.474167 
	C587.596741,218.776428 591.704224,219.519165 594.739136,214.996506 
	C597.476746,210.916916 599.655457,206.285583 601.166992,201.602661 
	C603.253418,195.138611 605.281006,188.473038 605.913879,181.759903 
	C607.286438,167.200455 630.100464,159.568527 639.969971,165.600540 
	C643.954956,168.036041 645.924072,171.546265 644.789673,176.131241 
	C643.657471,180.707306 640.354492,182.873642 635.370178,182.999619 
	C635.290894,181.361160 635.300415,179.896362 635.136108,178.451324 
	C634.470093,172.596039 629.694580,168.524307 624.011841,169.738693 
	C621.561035,170.262436 618.511780,172.156662 617.560547,174.255814 
	C616.745300,176.054916 617.803772,179.702759 619.318359,181.355850 
	C622.775452,185.129181 627.027466,188.172241 630.941467,191.529617 
	C633.340820,193.587738 635.904297,195.498489 638.054993,197.793198 
	C642.170227,202.183929 642.610107,207.257370 639.695618,212.498215 
	C635.007385,220.928955 621.595520,226.510269 612.353699,223.791855 
	C608.587708,222.684128 605.574463,220.661240 605.719910,216.187378 
	C605.846252,212.304108 608.074707,210.162369 610.796021,209.760498 
	C613.908020,213.001007 616.064270,216.611130 619.216797,218.073181 
	C621.509155,219.136307 625.118042,217.360626 628.456177,216.563751 
z"/>
<path fill="#2C2C2C" opacity="1.000000" stroke="none" 
	d="
M399.705139,167.138458 
	C394.181061,154.785049 396.806854,143.907013 404.963013,134.333176 
	C415.664917,121.771042 429.978912,116.058525 446.095581,115.966103 
	C456.514832,115.906334 466.945374,117.844810 477.371124,118.885666 
	C482.504211,119.398132 487.637573,120.268456 492.771179,120.271065 
	C495.578003,120.272491 498.384644,118.799202 501.193268,117.997658 
	C502.201569,117.709885 503.215515,117.441803 504.226868,117.164734 
	C504.488190,118.229027 505.089722,119.338806 504.954559,120.350113 
	C504.191132,126.060692 501.489777,130.673553 495.701324,132.147507 
	C491.928223,133.108307 487.802399,133.233887 483.889771,132.956238 
	C479.109100,132.617004 474.386200,131.463882 468.239807,130.426727 
	C464.837494,145.507996 460.740875,160.420685 458.304474,175.599854 
	C456.661835,185.833893 457.042206,196.447861 457.167328,206.884064 
	C457.219666,211.248810 458.237976,216.552429 463.555237,217.634796 
	C468.826324,218.707779 471.556000,214.222443 473.809113,210.349457 
	C475.800598,206.926239 477.014343,203.058945 478.794769,199.499420 
	C479.317291,198.454697 480.601990,197.791199 481.537354,196.952988 
	C481.915222,198.136993 482.962433,199.655396 482.564514,200.451782 
	C479.542023,206.501266 477.120972,213.160217 472.836639,218.206390 
	C463.741058,228.919388 449.751282,225.833664 444.810394,212.600372 
	C441.434387,203.558304 442.195007,194.233566 443.504059,184.962021 
	C446.075226,166.751938 451.217804,149.240082 458.192505,132.246124 
	C458.683289,131.050262 459.035156,129.797379 459.610077,128.104553 
	C448.326385,125.789955 437.484833,123.311653 426.282166,126.202103 
	C410.089111,130.380127 401.584686,148.011734 408.350555,163.404190 
	C410.494293,168.281250 414.189026,171.337646 419.342255,172.806046 
	C420.677032,173.186371 421.787781,174.353012 423.001404,175.158493 
	C421.603027,175.803772 420.243958,176.893143 418.799805,177.020905 
	C410.583038,177.747772 404.219757,174.562958 399.705139,167.138458 
z"/>
<path fill="#2C2C2C" opacity="1.000000" stroke="none" 
	d="
M59.287960,225.377609 
	C52.960464,223.667953 46.639061,222.862000 41.291073,220.142075 
	C26.479834,212.609268 22.721947,196.080612 32.360004,182.437149 
	C34.815601,178.961044 38.057056,175.904037 41.396744,173.227600 
	C44.597752,170.662292 48.395279,168.841339 52.202087,166.528320 
	C51.254944,165.718155 50.458702,164.932983 49.562637,164.286102 
	C34.511806,153.420792 33.863823,137.211380 48.017349,125.271988 
	C58.487591,116.439659 74.296059,113.953598 85.013947,119.452034 
	C90.281799,122.154526 93.773445,126.215744 93.901207,132.324692 
	C94.028084,138.390930 90.764946,142.662170 85.749031,145.729385 
	C85.337151,145.981247 84.852394,146.166321 84.378647,146.245270 
	C84.086937,146.293854 83.751816,146.081909 83.067459,145.876007 
	C83.171219,145.043076 83.137894,144.104660 83.415466,143.269623 
	C86.058167,135.319656 82.618629,127.593369 74.951851,124.371475 
	C67.053337,121.052200 56.841888,123.624252 52.382568,130.056213 
	C47.999344,136.378403 49.154858,145.493683 56.188065,151.650238 
	C60.611298,155.522156 66.241661,157.997101 71.223160,161.262482 
	C72.397224,162.032074 73.138786,163.461456 74.079315,164.587311 
	C72.952499,165.294296 71.909134,166.241943 70.684425,166.666611 
	C65.368088,168.510117 59.568161,169.427124 54.741135,172.113312 
	C45.517021,177.246399 41.016556,185.594910 42.372669,196.327576 
	C43.705154,206.873260 49.453358,214.237091 59.782322,217.289337 
	C70.728859,220.524094 80.271523,217.680130 87.844376,209.161026 
	C93.000084,203.361160 95.452583,196.374298 95.616821,188.565720 
	C95.643944,187.275986 96.433479,186.002289 96.870667,184.721191 
	C97.995407,185.730682 99.608421,186.524902 100.164085,187.785294 
	C103.308502,194.917526 101.439812,201.624634 97.280266,207.596863 
	C88.222015,220.602600 75.273857,225.836639 59.287960,225.377609 
z"/>
<path fill="#2B2B2B" opacity="1.000000" stroke="none" 
	d="
M669.339722,182.663803 
	C669.190002,191.085388 668.668396,199.083649 669.175781,207.016098 
	C669.512390,212.280106 670.806458,218.237411 677.110901,219.592468 
	C683.408386,220.946060 686.548523,215.879974 689.626892,211.459366 
	C690.194641,210.644012 690.458069,209.561234 691.149414,208.904510 
	C691.727295,208.355560 693.152649,207.774231 693.451233,208.042816 
	C694.131592,208.654663 694.850342,209.887939 694.678772,210.678940 
	C693.163208,217.666000 683.588074,225.709808 676.170532,226.426804 
	C667.967468,227.219727 660.404663,222.427292 656.974121,214.092880 
	C653.060913,204.585724 654.362854,194.781555 655.590393,185.015198 
	C656.186462,180.273224 656.954712,175.552872 657.723450,170.285248 
	C655.426086,170.285248 653.626038,170.497879 651.916748,170.196106 
	C651.054016,170.043823 649.633484,168.809921 649.733459,168.328232 
	C649.942017,167.323135 650.858093,165.907257 651.724854,165.707535 
	C653.794922,165.230591 656.005005,165.360840 658.652405,165.219559 
	C659.746887,158.787399 660.814636,152.443710 661.909180,146.104645 
	C662.640259,141.870087 670.591064,136.689316 674.414185,138.334412 
	C675.494751,138.799377 676.454712,141.294327 676.256897,142.685760 
	C675.255554,149.729385 673.854309,156.716202 672.487976,164.307632 
	C678.460266,164.044907 684.031128,163.799850 689.660400,163.552231 
	C691.059265,167.504288 689.927490,169.068222 685.978577,169.068863 
	C681.184448,169.069641 676.390259,169.440933 671.304321,169.664764 
	C670.640564,174.050201 670.022888,178.131348 669.339722,182.663803 
z"/>
<path fill="#FF8A24" opacity="1.000000" stroke="none" 
	d="
M786.035522,194.448273 
	C772.307251,194.627899 758.980652,194.885284 745.659912,194.706970 
	C738.385681,194.609604 733.223083,189.206879 733.068909,182.425507 
	C732.913208,175.582855 737.803589,169.826157 745.073181,169.607788 
	C757.888550,169.222839 770.728088,169.271225 783.548096,169.558426 
	C790.223572,169.707962 794.846375,174.381332 795.733521,180.698624 
	C796.562805,186.603958 793.197144,191.545639 786.035522,194.448273 
z"/>
<path fill="#FF8A24" opacity="1.000000" stroke="none" 
	d="
M1013.159058,194.823502 
	C1010.214661,194.568542 1007.637024,194.680939 1005.299255,193.986298 
	C999.624023,192.299988 996.259155,186.817337 996.831055,180.852264 
	C997.405640,174.859131 1001.871521,169.885208 1008.321777,169.692520 
	C1021.615417,169.295395 1034.939453,169.262955 1048.230469,169.702637 
	C1054.963867,169.925400 1059.674072,176.130417 1059.373047,182.742371 
	C1059.067627,189.451462 1054.134399,194.566727 1047.077026,194.724945 
	C1035.934570,194.974762 1024.782837,194.811951 1013.159058,194.823502 
z"/>
<path fill="#FF8822" opacity="1.000000" stroke="none" 
	d="
M892.233887,81.017960 
	C886.544250,78.649399 883.757751,74.539322 883.699585,68.861969 
	C883.571716,56.385338 883.352356,43.895535 883.784729,31.432419 
	C884.056152,23.606314 889.574341,18.808891 896.621948,19.001360 
	C903.557190,19.190758 908.750244,24.498680 908.871704,32.167057 
	C909.064087,44.314808 909.136719,56.473476 908.837219,68.617096 
	C908.605652,78.006874 901.993225,82.856499 892.233887,81.017960 
z"/>
<path fill="#FF8821" opacity="1.000000" stroke="none" 
	d="
M908.938599,318.997253 
	C908.927490,323.829193 909.094055,328.171204 908.865967,332.492401 
	C908.470154,339.988190 903.544800,345.011993 896.713013,345.208099 
	C889.587769,345.412598 884.190247,341.059509 883.910583,333.428131 
	C883.435303,320.459656 883.448059,307.448242 883.925903,294.479584 
	C884.199707,287.049774 890.028320,282.296021 896.766479,282.637634 
	C903.529053,282.980530 908.596191,288.128784 908.848816,295.503052 
	C909.111145,303.160034 908.927368,310.832336 908.938599,318.997253 
z"/>
<path fill="#FF8923" opacity="1.000000" stroke="none" 
	d="
M810.963074,250.762024 
	C818.201538,248.463821 823.809753,250.200089 826.994202,255.450073 
	C830.262634,260.838593 829.487061,266.653992 824.445007,271.801575 
	C816.167847,280.252014 807.817139,288.634125 799.346375,296.890076 
	C793.377441,302.707581 785.996216,302.745819 780.720459,297.309875 
	C775.610901,292.045166 775.847656,284.842438 781.640503,279.111115 
	C791.219421,269.633698 800.958191,260.317871 810.963074,250.762024 
z"/>
<path fill="#FF8923" opacity="1.000000" stroke="none" 
	d="
M1014.966675,78.405823 
	C1013.401123,81.173515 1012.246887,83.866188 1010.344604,85.836708 
	C1002.485413,93.977463 994.444946,101.945282 986.382751,109.887009 
	C980.159363,116.017334 972.722595,116.458199 967.369324,111.192017 
	C961.836609,105.749306 962.381958,98.350243 968.836487,91.871025 
	C976.706116,83.971252 984.594604,76.090187 992.489807,68.216019 
	C997.599365,63.119999 1002.534790,61.801903 1007.727356,64.095879 
	C1013.059753,66.451630 1015.345032,70.800072 1014.966675,78.405823 
z"/>
<path fill="#FF8821" opacity="1.000000" stroke="none" 
	d="
M783.114746,86.854210 
	C778.703308,82.580078 775.797119,78.097656 777.776123,71.969208 
	C780.617371,63.170982 791.216248,59.997471 797.902893,66.328720 
	C807.329529,75.254173 816.441040,84.521729 825.477600,93.846237 
	C830.303101,98.825523 830.032043,106.110451 825.345215,110.966637 
	C820.692810,115.787331 813.347534,116.409042 808.254700,111.653099 
	C799.741699,103.703362 791.640991,95.312088 783.114746,86.854210 
z"/>
<path fill="#FF8821" opacity="1.000000" stroke="none" 
	d="
M976.799561,249.466949 
	C980.049500,251.018799 983.425598,252.000229 985.697083,254.149323 
	C994.272522,262.262421 1002.529541,270.714844 1010.825439,279.119568 
	C1016.338440,284.704773 1016.678528,292.292603 1011.814514,297.392029 
	C1006.948669,302.493408 999.172058,302.579529 993.520325,297.139465 
	C985.013428,288.951111 976.791321,280.467529 968.402222,272.155762 
	C964.273987,268.065643 962.353516,263.320709 964.464966,257.700745 
	C966.483459,252.328308 970.735718,249.735535 976.799561,249.466949 
z"/>
<path fill="#2A2A2A" opacity="1.000000" stroke="none" 
	d="
M519.060669,177.651443 
	C510.211609,185.713058 508.325317,196.478073 506.118561,207.040695 
	C505.340576,210.764511 505.190552,214.626541 504.857483,218.434525 
	C504.449585,223.097595 501.900116,225.579742 497.222534,225.411285 
	C492.964386,225.257935 491.899658,221.800461 492.066132,218.719360 
	C492.567200,209.443497 493.732147,200.205734 494.467499,190.939545 
	C494.979858,184.483505 495.303192,178.008362 495.529205,171.535416 
	C495.641571,168.318314 499.954315,165.053421 504.918579,164.766785 
	C509.322479,164.512466 509.016815,167.646820 509.033508,170.520737 
	C509.045105,172.517593 509.085083,174.519867 508.961060,176.510284 
	C508.848022,178.323547 508.531067,180.124115 509.374115,182.295959 
	C510.460388,180.404007 511.444824,178.443817 512.656250,176.635696 
	C514.591370,173.747391 516.432800,170.737000 518.760437,168.185699 
	C521.769409,164.887589 525.941833,163.072372 529.980164,165.382080 
	C532.294373,166.705734 534.500427,169.954346 534.854431,172.591522 
	C535.501587,177.411789 531.659729,179.814804 527.373901,181.614349 
	C525.335938,179.098846 523.962830,174.988022 519.060669,177.651443 
z"/>
<path fill="#2C2C2C" opacity="1.000000" stroke="none" 
	d="
M235.997589,140.386948 
	C238.031769,144.649094 237.834427,148.732330 234.120087,150.858170 
	C231.671387,152.259644 227.320923,152.769836 225.113464,151.475891 
	C222.915924,150.187790 221.217194,146.078476 221.387543,143.335876 
	C221.527237,141.086975 224.338348,138.242294 226.672424,137.071884 
	C230.082443,135.361984 233.437210,136.929230 235.997589,140.386948 
z"/>
<path fill="#F8F8F8" opacity="1.000000" stroke="none" 
	d="
M277.028625,179.183289 
	C275.079315,187.304047 273.372284,195.078171 271.187042,202.715454 
	C270.196960,206.175858 268.683533,209.669998 266.603210,212.572342 
	C265.148926,214.601288 262.292145,216.836151 260.133148,216.766556 
	C258.398407,216.710617 255.910629,213.595917 255.239105,211.387772 
	C251.660034,199.618683 252.869217,188.034363 258.294312,177.058212 
	C261.124084,171.332977 271.601776,169.293167 276.203888,173.481644 
	C277.242157,174.426590 276.823730,176.972107 277.028625,179.183289 
z"/>
<path fill="#F9F9F9" opacity="1.000000" stroke="none" 
	d="
M326.993591,172.420990 
	C328.862091,172.058243 330.331085,171.656952 331.808472,171.623291 
	C339.465759,171.448822 341.502625,173.662415 339.576599,180.828598 
	C336.998474,190.421127 334.253723,199.988235 331.035126,209.379364 
	C329.818817,212.928207 328.012970,217.747849 323.076202,216.910309 
	C318.445923,216.124802 317.842743,211.236221 317.208466,207.384476 
	C315.669800,198.040863 316.384705,188.729279 320.033966,179.985779 
	C321.239319,177.097763 324.355499,175.007233 326.993591,172.420990 
z"/>
<path fill="#F8F8F8" opacity="1.000000" stroke="none" 
	d="
M167.440781,202.474655 
	C169.743134,195.804337 171.710144,189.440475 174.165710,183.271072 
	C175.313309,180.387787 177.098846,177.615326 179.135498,175.259705 
	C182.998596,170.791611 187.274094,171.639923 188.617584,177.337204 
	C191.458405,189.384201 190.410034,201.247864 184.644409,212.297882 
	C181.166916,218.962616 172.950424,220.713776 166.450394,216.611938 
	C165.541611,216.038452 164.817108,214.188141 164.984985,213.076523 
	C165.504974,209.632980 166.496826,206.260696 167.440781,202.474655 
z"/>
<path fill="#F5F5F5" opacity="1.000000" stroke="none" 
	d="
M142.945435,148.654709 
	C140.395004,155.863678 138.251282,162.800812 135.164032,169.289017 
	C133.890930,171.964600 130.590775,173.675659 128.212585,175.825424 
	C127.640862,175.498032 127.069145,175.170624 126.497429,174.843231 
	C130.095978,158.955856 133.694534,143.068497 137.440567,126.530052 
	C141.923309,131.222198 143.300903,137.321960 142.945435,148.654709 
z"/>
</svg>